<?xml version="1.0" encoding="UTF-8" standalone="no"?>
<svg
   width="482.5762"
   zoomAndPan="magnify"
   viewBox="0 0 361.93215 841.48973"
   height="1121.9863"
   preserveAspectRatio="xMidYMid"
   version="1.0"
   id="svg32"
   xmlns="http://www.w3.org/2000/svg"
   xmlns:svg="http://www.w3.org/2000/svg">
  <defs
     id="defs1">
    <clipPath
       id="ce022b5c2f">
      <path
         d="M 65,174 H 378 V 841.5 H 65 Z m 0,0"
         clip-rule="nonzero"
         id="path1" />
    </clipPath>
  </defs>
  <path
     fill="#f97238"
     d="m 65.561047,414.07812 c 0.07031,35.04297 7.9375,63 23.371098,83.21875 10.33984,13.55469 24.472655,24.07813 42.035155,31.26563 20.01563,8.20312 44.98828,12.35547 74.25391,12.35547 h 1.23047 c 29.58984,-0.1211 54.78906,-4.40625 74.92578,-12.7461 17.63281,-7.3164 31.8164,-17.96093 42.13672,-31.63671 15.33203,-20.34375 23.01953,-48.41797 22.82031,-83.44141 -0.16016,-28.78125 -0.25805,-28.59582 -6.13123,-70.52495 l -268.782211,1.34492 c -6.071392,41.28104 -5.914689,41.39097 -5.860002,70.1644 z"
     fill-opacity="1"
     fill-rule="nonzero"
     id="path2" />
  <path
     fill="#ffdd6d"
     d="M 142.6548,503.51953 302.33058,0.0078125 317.45168,4.804688 157.7759,508.32031 Z m 0,0"
     fill-opacity="1"
     fill-rule="nonzero"
     id="path3" />
  <path
     fill="#ffdd6d"
     d="M 142.6548,503.51953 302.33058,0.0078125 317.45168,4.804688 157.7759,508.32031 Z m 0,0"
     fill-opacity="1"
     fill-rule="nonzero"
     id="path4" />
  <path
     fill="#ffdd6d"
     d="M 142.6548,503.51953 302.33058,0.0078125 317.45168,4.804688 157.7759,508.32031 Z m 0,0"
     fill-opacity="1"
     fill-rule="nonzero"
     id="path5" />
  <path
     fill="#ffffff"
     d="M 301.05324,4.035156 304.37746,0.648438 302.33058,0 Z m 0,0"
     fill-opacity="1"
     fill-rule="nonzero"
     id="path6" />
  <path
     fill="#ffffff"
     d="m 306.79933,38.382812 8.03125,-25.3125 -24.57812,25.015626 -8.02735,25.3125 z m 0,0"
     fill-opacity="1"
     fill-rule="nonzero"
     id="path7" />
  <path
     fill="#ffffff"
     d="m 287.97121,97.761719 8.02734,-25.308594 -24.57812,25.011719 -8.02344,25.312496 z m 0,0"
     fill-opacity="1"
     fill-rule="nonzero"
     id="path8" />
  <path
     fill="#ffffff"
     d="m 269.13527,157.15234 8.02734,-25.30859 -24.57421,25.01172 -8.02735,25.3125 z m 0,0"
     fill-opacity="1"
     fill-rule="nonzero"
     id="path9" />
  <path
     fill="#ffffff"
     d="m 250.30715,216.53125 8.02734,-25.3125 -24.57422,25.01562 -8.03125,25.3125 z m 0,0"
     fill-opacity="1"
     fill-rule="nonzero"
     id="path10" />
  <path
     fill="#ffffff"
     d="m 231.47902,275.91016 8.02344,-25.3125 -24.57422,25.01562 -8.02734,25.30859 z m 0,0"
     fill-opacity="1"
     fill-rule="nonzero"
     id="path11" />
  <path
     fill="#ffffff"
     d="m 212.64699,335.28516 8.02734,-25.3086 -24.57812,25.01563 -8.02344,25.30859 z m 0,0"
     fill-opacity="1"
     fill-rule="nonzero"
     id="path12" />
  <path
     fill="#ffffff"
     d="m 193.81496,394.66406 8.02734,-25.3125 -24.57422,25.01563 -8.02734,25.3125 z m 0,0"
     fill-opacity="1"
     fill-rule="nonzero"
     id="path13" />
  <path
     fill="#ffffff"
     d="m 174.98683,454.04297 8.02735,-25.3086 -24.57813,25.01563 -8.02734,25.30859 z m 0,0"
     fill-opacity="1"
     fill-rule="nonzero"
     id="path14" />
  <path
     fill="#ffffff"
     d="m 164.18605,488.11328 -16.65625,16.94531 10.2461,3.25391 z m 0,0"
     fill-opacity="1"
     fill-rule="nonzero"
     id="path15" />
  <path
     fill="#ffffff"
     d="M 24.494641,259.05859 C -8.6889529,210.93359 3.4087041,145.01172 51.510266,111.81641 99.607925,78.621094 165.5298,90.71875 198.70949,138.84766 c 0.38672,0.55859 0.76562,1.12109 1.13672,1.67968 z m 0,0"
     fill-opacity="1"
     fill-rule="nonzero"
     id="path16" />
  <path
     fill="#ffdd6d"
     d="M 52.932141,112.13672 C 101.35402,79.40625 167.13527,92.136719 199.84621,140.57422 l 6.07422,-4.10547 C 170.13527,85.230469 99.596205,72.699219 48.365735,108.5 -1.7397339,143.5 -14.989734,211.97266 18.416516,263.16016 l 6.074219,-4.10547 C -8.1967649,210.62891 4.5337041,144.85937 52.932141,112.13672 Z m 0,0"
     fill-opacity="1"
     fill-rule="nonzero"
     id="path17" />
  <path
     fill="#ffdd6d"
     d="m 191.38136,146.25391 c -0.15234,-0.23829 -0.30078,-0.47266 -0.46093,-0.69922 -4.375,-6.48438 -9.21875,-12.59375 -14.53125,-18.33203 -4.34375,-4.67578 -9.76953,-6.54688 -11.69922,-3.69532 l -37.56641,55.6875 c -0.52344,0.75782 -0.91015,1.58203 -1.16406,2.46875 -0.25391,0.88672 -0.35938,1.78907 -0.31641,2.71094 0.0469,0.91797 0.23828,1.80859 0.57422,2.66797 0.33594,0.85937 0.80078,1.64062 1.39844,2.34375 z m 0,0"
     fill-opacity="1"
     fill-rule="nonzero"
     id="path18" />
  <path
     fill="#ffdd6d"
     d="m 106.22512,190.99609 c -0.57813,0.39063 -1.10938,0.83203 -1.60157,1.32813 -0.48828,0.49609 -0.92578,1.03515 -1.30859,1.61328 -0.38672,0.58203 -0.71094,1.19531 -0.97266,1.83984 -0.26172,0.64453 -0.46093,1.3086 -0.59375,1.9961 -0.13281,0.68359 -0.19922,1.37109 -0.19531,2.07031 0.004,0.69531 0.0742,1.38672 0.21484,2.07031 0.14063,0.67969 0.34375,1.34375 0.61329,1.98438 0.26953,0.64453 0.60156,1.2539 0.98828,1.83203 l 17.59765,-11.88672 c -0.39062,-0.57813 -0.83594,-1.10938 -1.33203,-1.60156 -0.49609,-0.48828 -1.03125,-0.92578 -1.61328,-1.3086 -0.58203,-0.38672 -1.19531,-0.70703 -1.84375,-0.97265 -0.64453,-0.26172 -1.30859,-0.46094 -1.99219,-0.59375 -0.68359,-0.13282 -1.375,-0.19532 -2.07422,-0.19141 -0.69531,0.004 -1.38671,0.0742 -2.0664,0.21484 -0.6836,0.14063 -1.34766,0.34375 -1.98828,0.61719 -0.64453,0.26953 -1.25391,0.59766 -1.83203,0.98828 z m 0,0"
     fill-opacity="1"
     fill-rule="nonzero"
     id="path19" />
  <path
     fill="#ffdd6d"
     d="m 96.756365,210.25 c -0.4336,-0.81641 -0.98438,-1.53906 -1.65235,-2.17188 -0.67187,-0.63281 -1.42578,-1.14062 -2.26172,-1.52343 -0.83593,-0.38282 -1.71484,-0.625 -2.6289,-0.71875 -0.91797,-0.0977 -1.82422,-0.043 -2.72266,0.16015 l -65.652344,14.08203 c -3.359375,0.71875 -3.664062,6.45704 -0.941406,12.23047 3.339844,7.07813 7.199219,13.85547 11.578125,20.33985 l 0.480469,0.6914 z m 0,0"
     fill-opacity="1"
     fill-rule="nonzero"
     id="path20" />
  <path
     fill="#ffdd6d"
     d="m 17.830579,180.92578 c -1.492188,7.67578 -2.382813,15.42188 -2.671875,23.23828 -0.242188,6.38672 2.273437,11.54688 5.652343,10.89453 l 65.929688,-12.76562 c 0.83203,-0.15625 1.625,-0.42969 2.37891,-0.82422 0.75,-0.39453 1.42968,-0.89063 2.03125,-1.49219 0.60156,-0.59765 1.10547,-1.26953 1.5039,-2.01953 0.40235,-0.75 0.6836,-1.54297 0.84375,-2.375 0.16016,-0.83594 0.19922,-1.67578 0.10547,-2.51953 -0.0898,-0.84375 -0.30078,-1.65625 -0.63672,-2.4375 -0.33593,-0.78125 -0.77734,-1.49609 -1.32812,-2.14453 -0.54688,-0.64453 -1.17969,-1.19922 -1.89844,-1.65625 L 33.314954,150.35937 c -2.894531,-1.86328 -7.144531,2 -9.308594,8.00782 -2.636719,7.36328 -4.695313,14.8789 -6.175781,22.55859 z m 0,0"
     fill-opacity="1"
     fill-rule="nonzero"
     id="path21" />
  <path
     fill="#ffdd6d"
     d="m 58.174329,119.85156 c -6.480469,4.37891 -12.589844,9.22656 -18.324219,14.54688 -4.683594,4.34375 -6.546875,9.77343 -3.695313,11.70312 l 55.640628,37.59766 c 0.69922,0.47265 1.45312,0.83203 2.26172,1.08203 0.80859,0.24609 1.63672,0.36719 2.48437,0.36719 0.84375,0 1.67188,-0.125 2.48047,-0.375 0.80469,-0.2461 1.558595,-0.60938 2.261725,-1.08203 0.69922,-0.47657 1.3125,-1.04297 1.84375,-1.70313 0.53125,-0.65625 0.95312,-1.37891 1.26562,-2.16406 0.3125,-0.78516 0.50782,-1.60156 0.57422,-2.44141 0.0703,-0.84375 0.0156,-1.67969 -0.16406,-2.5039 L 90.721205,109.21094 c -0.71875,-3.3711 -6.460939,-3.65235 -12.226564,-0.94141 -7.070312,3.33985 -13.84375,7.19922 -20.320312,11.58203 z m 0,0"
     fill-opacity="1"
     fill-rule="nonzero"
     id="path22" />
  <path
     fill="#ffdd6d"
     d="m 129.86574,105.19922 c -7.67188,-1.49219 -15.41797,-2.38281 -23.23047,-2.67578 -6.38672,-0.24219 -11.542975,2.28125 -10.890625,5.65625 l 12.761725,65.95703 c 0.15234,0.83594 0.42968,1.63281 0.82421,2.38281 0.39454,0.75391 0.89063,1.42969 1.48829,2.03516 0.59765,0.60156 1.27343,1.10547 2.02343,1.5039 0.7461,0.40235 1.53906,0.6836 2.375,0.84375 0.83203,0.16407 1.67188,0.19922 2.51563,0.10547 0.84765,-0.0898 1.66015,-0.30078 2.4375,-0.63672 0.78125,-0.33593 1.49609,-0.78125 2.14453,-1.33203 0.64453,-0.55078 1.19922,-1.18359 1.65625,-1.89844 l 36.4414,-56.42578 c 1.86329,-2.89062 -2,-7.16015 -8.00781,-9.32031 -7.35547,-2.64062 -14.86719,-4.70312 -22.53906,-6.19531 z m 0,0"
     fill-opacity="1"
     fill-rule="nonzero"
     id="path23" />
  <path
     fill="#ffffff"
     d="m 118.99855,156.82422 c -0.60156,1.86328 -5.70703,6.17969 -5.70703,6.17969 0,0 -1.60156,-6.48438 -1,-8.33985 0.11719,-0.45312 0.32031,-0.86719 0.60156,-1.24219 0.28516,-0.37109 0.62891,-0.67578 1.03125,-0.91406 0.40625,-0.23828 0.83985,-0.38672 1.30469,-0.44922 0.46484,-0.0664 0.92188,-0.0391 1.375,0.082 0.45313,0.11719 0.86719,0.31641 1.23828,0.60157 0.375,0.28125 0.67969,0.625 0.91797,1.03125 0.23438,0.40625 0.38672,0.83984 0.44922,1.30468 0.0625,0.46485 0.0352,0.92188 -0.082,1.375 -0.0312,0.125 -0.0742,0.25 -0.1211,0.3711 z m 0,0"
     fill-opacity="1"
     fill-rule="nonzero"
     id="path24" />
  <path
     fill="#ffffff"
     d="m 89.271985,140.78906 c 0.76172,1.78906 -0.30078,8.39844 -0.30078,8.39844 0,0 -5.445314,-3.87109 -6.195314,-5.67578 -0.214844,-0.41406 -0.34375,-0.85938 -0.382812,-1.32422 -0.03906,-0.46875 0.01172,-0.92578 0.152344,-1.37109 0.140624,-0.44532 0.363281,-0.84766 0.664062,-1.20704 0.304688,-0.35937 0.664062,-0.64453 1.078125,-0.86328 0.417969,-0.21484 0.859375,-0.33984 1.324215,-0.38281 0.46875,-0.0391 0.92579,0.0117 1.3711,0.15625 0.44531,0.14063 0.84765,0.36328 1.20703,0.66406 0.35937,0.30078 0.64453,0.66016 0.85937,1.07813 0.0898,0.16797 0.16407,0.34375 0.22266,0.52734 z m 0,0"
     fill-opacity="1"
     fill-rule="nonzero"
     id="path25" />
  <path
     fill="#ffffff"
     d="m 78.494641,192.37891 c 1.941406,0.10937 7.414064,3.9414 7.414064,3.9414 0,0 -5.82422,3.20703 -7.839845,3.09766 -0.464844,0.0273 -0.921875,-0.0352 -1.363281,-0.1875 -0.445313,-0.15625 -0.839844,-0.38672 -1.191406,-0.69531 -0.351563,-0.3125 -0.628907,-0.67969 -0.832032,-1.10157 -0.207031,-0.42187 -0.324218,-0.86328 -0.351562,-1.33203 -0.02734,-0.46875 0.03516,-0.92578 0.1875,-1.36719 0.152344,-0.4414 0.382812,-0.83984 0.695312,-1.1914 0.308594,-0.35156 0.675782,-0.62891 1.097656,-0.83203 0.421876,-0.20703 0.867188,-0.32422 1.332032,-0.35157 0.277344,-0.0156 0.554687,0 0.828125,0.0469 z m 0,0"
     fill-opacity="1"
     fill-rule="nonzero"
     id="path26" />
  <path
     stroke-linecap="round"
     fill="none"
     stroke-linejoin="round"
     d="M 343.61978,309.06614 310.08071,190.11703 c -1.39843,-4.95703 -2.99999,-9.78906 -4.80079,-14.49608 l -100.27738,0.39062 -100.27739,0.38672 c -1.76171,4.74219 -3.32422,9.58593 -4.68359,14.53515 L 67.420451,310.14426 C 38.397001,416.19107 30.881375,555.70266 206.48301,555.0347 382.08857,554.36282 373.46745,414.87856 343.61978,309.06614 Z m 0,0"
     stroke="#8cb8bc"
     stroke-width="3.0039"
     stroke-opacity="1"
     stroke-miterlimit="4"
     id="path27" />
  <g
     clip-path="url(#ce022b5c2f)"
     id="g28"
     transform="translate(-15.228015)">
    <path
       stroke-linecap="round"
       transform="matrix(0.27991,0,0,0.279996,15.234004,0)"
       fill="none"
       stroke-linejoin="round"
       d="m 1229.2335,2932.6287 -368.71525,-90.6262 c -6.93583,-1.702 -13.57859,-4.2132 -19.90038,-7.5475 -6.32179,-3.3483 -12.14119,-7.3941 -17.45819,-12.1793 -5.33095,-4.7713 -9.99205,-10.1145 -13.98329,-16.0438 -4.0052,-5.9292 -7.21494,-12.249 -9.65713,-18.9734 -16.16033,-45.0202 -23.93348,-91.4354 -23.31945,-139.2597 l 8.58257,-666.9035 c 578.57632,-26.8419 546.68822,-509.0889 442.80432,-877.2858 L 1107.7658,678.99909 c -4.996,-17.70392 -10.7177,-34.96141 -17.1512,-51.77246 l -358.24865,1.39511 -358.24868,1.38115 c -6.25201,16.99242 -11.90394,34.222 -16.7325,51.99568 L 240.84335,1107.6739 c -100.99512,369.0898 -129.11522,851.4484 449.64249,873.7981 l 13.99725,666.7919 c 0.97688,47.8243 -6.44739,94.3093 -22.27279,139.441 -2.38637,6.7384 -5.54029,13.0861 -9.48966,19.0432 -3.94938,5.9571 -8.55465,11.3423 -13.84374,16.1554 -5.27514,4.8131 -11.05267,8.9147 -17.34655,12.3048 -6.29387,3.3902 -12.89477,5.9572 -19.81664,7.715 l -368.157,93.542 c -3.5028,0.8789 -6.92187,2.0508 -10.2293,3.5157 -3.30743,1.4509 -6.48925,3.1669 -9.51757,5.1479 -3.02832,1.9811 -5.86126,4.1993 -8.52674,6.6547 -2.66548,2.4554 -5.10767,5.1061 -7.32658,7.966 -2.21891,2.86 -4.18661,5.8734 -5.90313,9.0682 -1.71651,3.1809 -3.16787,6.4873 -4.34012,9.9053 -1.17225,3.432 -2.05144,6.9197 -2.63757,10.4912 -0.58613,3.5715 -0.87919,7.1709 -0.87919,10.7842 l 537.42186,-2.1066 537.39393,-2.0787 c -0.014,-3.6133 -0.3349,-7.1988 -0.9489,-10.7703 -0.6141,-3.5575 -1.5212,-7.0592 -2.7074,-10.4633 -1.2002,-3.418 -2.6655,-6.7104 -4.4099,-9.8913 -1.7305,-3.1669 -3.7261,-6.1803 -5.9589,-9.0124 -2.2469,-2.846 -4.703,-5.4828 -7.3685,-7.9242 -2.6794,-2.4275 -5.5403,-4.6318 -8.5825,-6.5849 -3.0423,-1.9671 -6.2241,-3.6552 -9.5455,-5.0921 -3.3214,-1.437 -6.7405,-2.581 -10.2572,-3.446 z m 0,0"
       stroke="#8cb8bc"
       stroke-width="10.73"
       stroke-opacity="1"
       stroke-miterlimit="4"
       id="path28" />
  </g>
  <path
     stroke-linecap="round"
     fill="none"
     stroke-linejoin="round"
     d="m 104.72515,176.39829 c 0,0 43.66799,38.22263 100.42583,38.04684 56.76174,-0.17968 100.08989,-38.77731 100.08989,-38.77731 z m 0,0"
     stroke="#8cb8bc"
     stroke-width="3.0039"
     stroke-opacity="1"
     stroke-miterlimit="4"
     id="path29" />
  <path
     fill="#f4906c"
     d="m 215.70949,426.5625 71.57422,-10.86719 10.86328,71.59375 -71.57422,10.86719 z m 0,0"
     fill-opacity="1"
     fill-rule="nonzero"
     id="path30"
     style="fill:#fdc3a6;fill-opacity:0.701961" />
  <path
     fill="#f4906c"
     d="m 227.26096,353.8749 46.09766,-55.83985 55.82031,46.11328 -46.09765,55.83594 z m 0,0"
     fill-opacity="1"
     fill-rule="nonzero"
     id="path31"
     style="fill:#fdc3a6;fill-opacity:0.701796" />
  <path
     fill="#f4906c"
     d="m 89.088395,318.41406 72.074215,-6.79297 6.78516,72.09766 -72.074225,6.78906 z m 0,0"
     fill-opacity="1"
     fill-rule="nonzero"
     id="path32"
     style="fill:#fdc3a6;fill-opacity:0.701961" />
</svg>
